<svg viewBox="0 0 24 24" xmlns="http://www.w3.org/2000/svg" class="kirk-icon sc-3dofso-0 eXbdae" aria-hidden="true" style="height: var(--g43xpl3g); width: var(--g43xpl3g);"><g stroke="none" stroke-width="1" fill="none" fill-rule="evenodd"><path stroke="hsla(189, 13%, 50%, 1)" stroke-linecap="round" stroke-linejoin="round" d="M20.7818182,17.4727273 C22.4545455,15.8 23.5,13.7090909 23.5,11.4090909 C23.5,6.18181818 18.3772727,2 12,2 C5.62272727,2 0.5,6.18181818 0.5,11.4090909 C0.5,16.6363636 5.62272727,20.8181818 12,20.8181818 C13.15,20.8181818 14.1954545,20.7136364 15.2409091,20.4 L21.4090909,22.9090909 L20.7818182,17.4727273 Z"></path><path fill="hsla(189, 13%, 50%, 1)" d="M10.371,8.774 C10.869,8.852 11.223,9.176 11.223,9.812 C11.223,10.634 10.593,11 9.867,11 L8.091,11 L8.091,6.8 L9.753,6.8 C10.491,6.8 11.013,7.16 11.013,7.856 C11.013,8.306 10.791,8.63 10.371,8.762 L10.371,8.774 Z M9.633,7.508 L8.859,7.508 L8.859,8.516 L9.603,8.516 C9.993,8.516 10.209,8.33 10.209,8.006 C10.209,7.676 9.975,7.508 9.633,7.508 Z M9.735,10.292 C10.155,10.292 10.407,10.082 10.407,9.734 C10.407,9.386 10.167,9.176 9.705,9.176 L8.859,9.176 L8.859,10.292 L9.735,10.292 Z M12.495,6.8 L11.757,6.8 L11.757,11 L12.495,11 L12.495,6.8 Z M14.325,11.09 C13.599,11.09 12.993,10.562 12.993,9.614 C12.993,8.666 13.599,8.138 14.325,8.138 C14.775,8.138 15.075,8.33 15.249,8.618 L15.261,8.618 L15.261,8.228 L15.993,8.228 L15.993,11 L15.261,11 L15.261,10.61 L15.249,10.61 C15.075,10.898 14.775,11.09 14.325,11.09 Z M14.511,10.394 C14.955,10.394 15.261,10.082 15.261,9.614 C15.261,9.146 14.955,8.834 14.511,8.834 C14.067,8.834 13.761,9.146 13.761,9.614 C13.761,10.082 14.067,10.394 14.511,10.394 Z"></path><path fill="hsla(189, 13%, 50%, 1)" d="M10.371,14.0739992 C10.869,14.1519992 11.223,14.4759992 11.223,15.1119992 C11.223,15.9339992 10.593,16.2999992 9.867,16.2999992 L8.091,16.2999992 L8.091,12.0999992 L9.753,12.0999992 C10.491,12.0999992 11.013,12.4599992 11.013,13.1559992 C11.013,13.6059992 10.791,13.9299992 10.371,14.0619992 L10.371,14.0739992 Z M9.633,12.8079992 L8.859,12.8079992 L8.859,13.8159992 L9.603,13.8159992 C9.993,13.8159992 10.209,13.6299992 10.209,13.3059992 C10.209,12.9759992 9.975,12.8079992 9.633,12.8079992 Z M9.735,15.5919992 C10.155,15.5919992 10.407,15.3819992 10.407,15.0339992 C10.407,14.6859992 10.167,14.4759992 9.705,14.4759992 L8.859,14.4759992 L8.859,15.5919992 L9.735,15.5919992 Z M12.495,12.0999992 L11.757,12.0999992 L11.757,16.2999992 L12.495,16.2999992 L12.495,12.0999992 Z M14.325,16.3899992 C13.599,16.3899992 12.993,15.8619992 12.993,14.9139992 C12.993,13.9659992 13.599,13.4379992 14.325,13.4379992 C14.775,13.4379992 15.075,13.6299992 15.249,13.9179992 L15.261,13.9179992 L15.261,13.5279992 L15.993,13.5279992 L15.993,16.2999992 L15.261,16.2999992 L15.261,15.9099992 L15.249,15.9099992 C15.075,16.1979992 14.775,16.3899992 14.325,16.3899992 Z M14.511,15.6939992 C14.955,15.6939992 15.261,15.3819992 15.261,14.9139992 C15.261,14.4459992 14.955,14.1339992 14.511,14.1339992 C14.067,14.1339992 13.761,14.4459992 13.761,14.9139992 C13.761,15.3819992 14.067,15.6939992 14.511,15.6939992 Z"></path><g transform="translate(-60.000000, -20.000000)"></g></g></svg>